<mxfile host="app.diagrams.net" agent="Mozilla/5.0 (Windows NT 10.0; Win64; x64) AppleWebKit/537.36 (KHTML, like Gecko) Chrome/137.0.0.0 Safari/537.36" version="27.1.4">
  <diagram name="Page-1" id="byOk84Zqg76M5chEKnyW">
    <mxGraphModel dx="784" dy="776" grid="1" gridSize="10" guides="1" tooltips="1" connect="1" arrows="1" fold="1" page="1" pageScale="1" pageWidth="850" pageHeight="1100" math="0" shadow="0">
      <root>
        <mxCell id="0" />
        <mxCell id="1" parent="0" />
        <mxCell id="KcV5juVCaOh-lqzMnSIc-1" value="" style="rounded=1;whiteSpace=wrap;html=1;fillColor=#60a917;fontColor=#ffffff;strokeColor=#2D7600;" vertex="1" parent="1">
          <mxGeometry x="290" y="80" width="270" height="440" as="geometry" />
        </mxCell>
        <mxCell id="KcV5juVCaOh-lqzMnSIc-2" value="Group Check-in" style="ellipse;whiteSpace=wrap;html=1;fillColor=#0050ef;strokeColor=#001DBC;fontColor=#ffffff;" vertex="1" parent="1">
          <mxGeometry x="340" y="160" width="120" height="50" as="geometry" />
        </mxCell>
        <mxCell id="KcV5juVCaOh-lqzMnSIc-3" value="Individual&lt;div&gt;Check-In&lt;/div&gt;" style="ellipse;whiteSpace=wrap;html=1;fillColor=#0050ef;fontColor=#ffffff;strokeColor=#001DBC;" vertex="1" parent="1">
          <mxGeometry x="340" y="270" width="120" height="50" as="geometry" />
        </mxCell>
        <mxCell id="KcV5juVCaOh-lqzMnSIc-4" value="Baggage&lt;div&gt;Check-In&lt;/div&gt;" style="ellipse;whiteSpace=wrap;html=1;fillColor=#0050ef;fontColor=#ffffff;strokeColor=#001DBC;" vertex="1" parent="1">
          <mxGeometry x="390" y="380" width="120" height="50" as="geometry" />
        </mxCell>
        <mxCell id="KcV5juVCaOh-lqzMnSIc-5" value="Security&lt;div&gt;Screening&lt;/div&gt;" style="ellipse;whiteSpace=wrap;html=1;fillColor=#0050ef;fontColor=#ffffff;strokeColor=#001DBC;" vertex="1" parent="1">
          <mxGeometry x="330" y="450" width="120" height="50" as="geometry" />
        </mxCell>
        <mxCell id="KcV5juVCaOh-lqzMnSIc-6" value="&lt;font style=&quot;font-size: 18px; color: light-dark(rgb(0, 0, 0), rgb(0, 0, 0));&quot;&gt;&lt;br&gt;&amp;lt;&amp;lt;Business&amp;gt;&amp;gt;&lt;/font&gt;" style="text;html=1;align=center;verticalAlign=middle;resizable=0;points=[];autosize=1;strokeColor=none;fillColor=none;strokeWidth=5;" vertex="1" parent="1">
          <mxGeometry x="300" y="70" width="140" height="60" as="geometry" />
        </mxCell>
        <mxCell id="KcV5juVCaOh-lqzMnSIc-7" value="&lt;b&gt;&lt;font style=&quot;color: light-dark(rgb(0, 0, 0), rgb(0, 0, 0)); font-size: 15px;&quot;&gt;Airport&lt;/font&gt;&lt;/b&gt;" style="text;html=1;align=center;verticalAlign=middle;resizable=0;points=[];autosize=1;strokeColor=none;fillColor=none;" vertex="1" parent="1">
          <mxGeometry x="300" y="120" width="70" height="30" as="geometry" />
        </mxCell>
        <mxCell id="KcV5juVCaOh-lqzMnSIc-8" value="&lt;font style=&quot;font-size: 16px; color: light-dark(rgb(0, 0, 0), rgb(0, 0, 0));&quot;&gt;&amp;lt;&amp;lt;include&amp;gt;&amp;gt;&lt;/font&gt;" style="text;html=1;align=center;verticalAlign=middle;resizable=0;points=[];autosize=1;strokeColor=none;fillColor=none;" vertex="1" parent="1">
          <mxGeometry x="300" y="220" width="110" height="30" as="geometry" />
        </mxCell>
        <mxCell id="KcV5juVCaOh-lqzMnSIc-9" value="&lt;font style=&quot;font-size: 16px; color: light-dark(rgb(0, 0, 0), rgb(0, 0, 0));&quot;&gt;&amp;lt;&amp;lt;extend&amp;gt;&amp;gt;&lt;/font&gt;" style="text;html=1;align=center;verticalAlign=middle;resizable=0;points=[];autosize=1;strokeColor=none;fillColor=none;" vertex="1" parent="1">
          <mxGeometry x="325" y="340" width="110" height="30" as="geometry" />
        </mxCell>
        <mxCell id="KcV5juVCaOh-lqzMnSIc-12" value="" style="edgeStyle=orthogonalEdgeStyle;rounded=0;orthogonalLoop=1;jettySize=auto;html=1;" edge="1" parent="1" target="KcV5juVCaOh-lqzMnSIc-11">
          <mxGeometry relative="1" as="geometry">
            <mxPoint x="75" y="270" as="sourcePoint" />
          </mxGeometry>
        </mxCell>
        <mxCell id="KcV5juVCaOh-lqzMnSIc-13" value="" style="edgeStyle=orthogonalEdgeStyle;rounded=0;orthogonalLoop=1;jettySize=auto;html=1;" edge="1" parent="1" target="KcV5juVCaOh-lqzMnSIc-11">
          <mxGeometry relative="1" as="geometry">
            <mxPoint x="75" y="270" as="sourcePoint" />
          </mxGeometry>
        </mxCell>
        <mxCell id="KcV5juVCaOh-lqzMnSIc-10" value="&lt;font style=&quot;color: light-dark(rgb(0, 0, 0), rgb(255, 255, 255));&quot;&gt;Tour Guide&lt;/font&gt;" style="shape=umlActor;verticalLabelPosition=bottom;verticalAlign=top;html=1;outlineConnect=0;" vertex="1" parent="1">
          <mxGeometry x="50" y="140" width="50" height="100" as="geometry" />
        </mxCell>
        <mxCell id="KcV5juVCaOh-lqzMnSIc-11" value="Passenger" style="shape=umlActor;verticalLabelPosition=bottom;verticalAlign=top;html=1;outlineConnect=0;" vertex="1" parent="1">
          <mxGeometry x="50" y="355" width="50" height="100" as="geometry" />
        </mxCell>
        <mxCell id="KcV5juVCaOh-lqzMnSIc-18" value="" style="endArrow=none;html=1;rounded=0;entryX=0;entryY=0.5;entryDx=0;entryDy=0;" edge="1" parent="1" target="KcV5juVCaOh-lqzMnSIc-2">
          <mxGeometry width="50" height="50" relative="1" as="geometry">
            <mxPoint x="110" y="185" as="sourcePoint" />
            <mxPoint x="290" y="360" as="targetPoint" />
            <Array as="points">
              <mxPoint x="160" y="185" />
            </Array>
          </mxGeometry>
        </mxCell>
        <mxCell id="KcV5juVCaOh-lqzMnSIc-19" value="" style="endArrow=none;html=1;rounded=0;entryX=0.025;entryY=0.72;entryDx=0;entryDy=0;entryPerimeter=0;" edge="1" parent="1" target="KcV5juVCaOh-lqzMnSIc-3">
          <mxGeometry width="50" height="50" relative="1" as="geometry">
            <mxPoint x="100" y="400" as="sourcePoint" />
            <mxPoint x="280" y="342.8571428571429" as="targetPoint" />
          </mxGeometry>
        </mxCell>
        <mxCell id="KcV5juVCaOh-lqzMnSIc-22" value="" style="endArrow=none;html=1;rounded=0;entryX=0;entryY=0.5;entryDx=0;entryDy=0;" edge="1" parent="1" target="KcV5juVCaOh-lqzMnSIc-5">
          <mxGeometry width="50" height="50" relative="1" as="geometry">
            <mxPoint x="100" y="400" as="sourcePoint" />
            <mxPoint x="250" y="460" as="targetPoint" />
          </mxGeometry>
        </mxCell>
      </root>
    </mxGraphModel>
  </diagram>
</mxfile>
